Source:Fox& MiLLENiUM Thanks
Sample:Never
Encoder:Tony

Format                                   : AVI
Format/Info                              : Audio Video Interleave
File size                                : 982 MiB
Duration                                 : 1h 57mn
Overall bit rate                         : 1 173 Kbps
Writing library                          : VirtualDub build 32817/release

Video
ID                                       : 0
Format                                   : MPEG-4 Visual
Format profile                           : Advanced Simple@L5
Format settings, BVOP                    : 2
Format settings, QPel                    : No
Format settings, GMC                     : No warppoints
Format settings, Matrix                  : Default (H.263)
Muxing mode                              : Packed bitstream
Codec ID                                 : XVID
Codec ID/Hint                            : XviD
Duration                                 : 1h 57mn
Bit rate                                 : 1 036 Kbps
Width                                    : 640 pixels
Height                                   : 248 pixels
Display aspect ratio                     : 2.581
Frame rate                               : 25.000 fps
Color space                              : YUV
Chroma subsampling                       : 4:2:0
Bit depth                                : 8 bits
Scan type                                : Progressive
Compression mode                         : Lossy
Bits/(Pixel*Frame)                       : 0.261
Stream size                              : 867 MiB (88%)
Writing library                          : XviD 64

Audio
ID                                       : 1
Format                                   : MPEG Audio
Format version                           : Version 1
Format profile                           : Layer 3
Mode                                     : Joint stereo
Mode extension                           : MS Stereo
Codec ID                                 : 55
Codec ID/Hint                            : MP3
Duration                                 : 1h 57mn
Bit rate mode                            : Constant
Bit rate                                 : 128 Kbps
Channel(s)                               : 2 channels
Sampling rate                            : 48.0 KHz
Compression mode                         : Lossy
Stream size                              : 107 MiB (11%)
Alignment                                : Split accross interleaves
Interleave, duration                     : 40 ms (1.00 video frame)
Interleave, preload duration             : 500 ms
Writing library                          : LAME3.98r
Encoding settings                        : -m j -V 4 -q 3 -lowpass 17 -b 128

Screens: 
http://i.imgur.com/YPAg2oL.png 
http://i.imgur.com/qyAO00S.png 
http://i.imgur.com/0vmbAO5.png 
http://i.imgur.com/xtKqSWx.png